<mxfile host="65bd71144e" pages="7" scale="1" border="5" disableSvgWarning="true">
    <diagram id="5Dg04Nr58mkKkYB7gLD7" name="moveos">
        <mxGraphModel dx="1192" dy="716" grid="1" gridSize="10" guides="1" tooltips="1" connect="1" arrows="1" fold="1" page="1" pageScale="1" pageWidth="850" pageHeight="1100" math="0" shadow="0">
            <root>
                <mxCell id="0"/>
                <mxCell id="1" parent="0"/>
                <mxCell id="wN5z0VdmhAgD4SA51VTo-1" value="" style="rounded=0;whiteSpace=wrap;html=1;" parent="1" vertex="1">
                    <mxGeometry x="100" y="510" width="650" height="300" as="geometry"/>
                </mxCell>
                <mxCell id="wN5z0VdmhAgD4SA51VTo-2" value="MoveOS" style="rounded=0;whiteSpace=wrap;html=1;dashed=1;strokeColor=none;" parent="1" vertex="1">
                    <mxGeometry x="119.76" y="517" width="600.4705882352941" height="40" as="geometry"/>
                </mxCell>
                <mxCell id="wN5z0VdmhAgD4SA51VTo-3" value="MoveVM" style="rounded=0;whiteSpace=wrap;html=1;" parent="1" vertex="1">
                    <mxGeometry x="112" y="760" width="298" height="40" as="geometry"/>
                </mxCell>
                <mxCell id="wN5z0VdmhAgD4SA51VTo-4" value="" style="rounded=0;whiteSpace=wrap;html=1;dashed=1;" parent="1" vertex="1">
                    <mxGeometry x="112" y="610" width="618" height="140" as="geometry"/>
                </mxCell>
                <mxCell id="wN5z0VdmhAgD4SA51VTo-6" value="ChainFramework Adapter" style="rounded=1;whiteSpace=wrap;html=1;" parent="1" vertex="1">
                    <mxGeometry x="130" y="630" width="580" height="42.27" as="geometry"/>
                </mxCell>
                <mxCell id="wN5z0VdmhAgD4SA51VTo-9" value="Object Extension" style="rounded=1;whiteSpace=wrap;html=1;" parent="1" vertex="1">
                    <mxGeometry x="432" y="690" width="131" height="52.27" as="geometry"/>
                </mxCell>
                <mxCell id="wN5z0VdmhAgD4SA51VTo-10" value="MoveOS Framework&lt;br&gt;(Transaction Abstraction, Account Abstraction)" style="rounded=1;whiteSpace=wrap;html=1;" parent="1" vertex="1">
                    <mxGeometry x="130" y="690" width="280" height="52.27" as="geometry"/>
                </mxCell>
                <mxCell id="wN5z0VdmhAgD4SA51VTo-13" value="Table Extension" style="rounded=1;whiteSpace=wrap;html=1;" parent="1" vertex="1">
                    <mxGeometry x="581" y="690" width="131" height="52.27" as="geometry"/>
                </mxCell>
                <mxCell id="wN5z0VdmhAgD4SA51VTo-16" value="StateDB&lt;br&gt;(State Query&amp;amp;State Proof)" style="rounded=0;whiteSpace=wrap;html=1;" parent="1" vertex="1">
                    <mxGeometry x="425" y="760" width="309" height="40" as="geometry"/>
                </mxCell>
                <mxCell id="tf0aQhImynZTG2urDEBp-1" value="Parallel Execution Engine" style="rounded=1;whiteSpace=wrap;html=1;" parent="1" vertex="1">
                    <mxGeometry x="110" y="557" width="620" height="42.27" as="geometry"/>
                </mxCell>
            </root>
        </mxGraphModel>
    </diagram>
    <diagram id="2alpfbnSqNpXs6ikViOz" name="omo">
        <mxGraphModel dx="1192" dy="716" grid="1" gridSize="10" guides="1" tooltips="1" connect="1" arrows="1" fold="1" page="1" pageScale="1" pageWidth="850" pageHeight="1100" math="0" shadow="0">
            <root>
                <mxCell id="0"/>
                <mxCell id="1" parent="0"/>
                <mxCell id="XdkposplsFSqHSL-H2rm-19" value="OMO&lt;br&gt;&amp;nbsp;(MIPS Emulator)" style="whiteSpace=wrap;html=1;aspect=fixed;verticalAlign=top;" parent="1" vertex="1">
                    <mxGeometry x="560" y="220.5" width="151.5" height="151.5" as="geometry"/>
                </mxCell>
                <mxCell id="XdkposplsFSqHSL-H2rm-2" value="&lt;br&gt;MoveVM" style="ellipse;whiteSpace=wrap;html=1;aspect=fixed;verticalAlign=top;" parent="1" vertex="1">
                    <mxGeometry x="286.5" y="382" width="150" height="150" as="geometry"/>
                </mxCell>
                <mxCell id="XdkposplsFSqHSL-H2rm-3" value="MIPS.move" style="rounded=0;whiteSpace=wrap;html=1;" parent="1" vertex="1">
                    <mxGeometry x="304" y="433" width="115" height="60" as="geometry"/>
                </mxCell>
                <mxCell id="XdkposplsFSqHSL-H2rm-7" value="MoveVM" style="rounded=0;whiteSpace=wrap;html=1;" parent="1" vertex="1">
                    <mxGeometry x="575" y="277" width="115" height="60" as="geometry"/>
                </mxCell>
                <mxCell id="XdkposplsFSqHSL-H2rm-10" value="Challenger" style="text;html=1;align=center;verticalAlign=middle;resizable=0;points=[];autosize=1;strokeColor=none;fillColor=none;fontSize=16;" parent="1" vertex="1">
                    <mxGeometry x="708" y="281" width="100" height="30" as="geometry"/>
                </mxCell>
                <mxCell id="XdkposplsFSqHSL-H2rm-11" value="Defender" style="text;html=1;align=center;verticalAlign=middle;resizable=0;points=[];autosize=1;strokeColor=none;fillColor=none;fontSize=16;" parent="1" vertex="1">
                    <mxGeometry x="710" y="567" width="90" height="30" as="geometry"/>
                </mxCell>
                <mxCell id="XdkposplsFSqHSL-H2rm-12" value="" style="endArrow=classic;startArrow=classic;html=1;rounded=0;" parent="1" edge="1">
                    <mxGeometry width="50" height="50" relative="1" as="geometry">
                        <mxPoint x="639" y="494" as="sourcePoint"/>
                        <mxPoint x="639" y="394" as="targetPoint"/>
                    </mxGeometry>
                </mxCell>
                <mxCell id="wgEDJszfuv_QJwVBHLMD-2" value="&lt;span style=&quot;font-size: 16px; background-color: rgb(251, 251, 251);&quot;&gt;Interactive Fraud Proof&lt;/span&gt;" style="edgeLabel;html=1;align=center;verticalAlign=middle;resizable=0;points=[];" parent="XdkposplsFSqHSL-H2rm-12" vertex="1" connectable="0">
                    <mxGeometry x="0.0614" y="2" relative="1" as="geometry">
                        <mxPoint as="offset"/>
                    </mxGeometry>
                </mxCell>
                <mxCell id="XdkposplsFSqHSL-H2rm-14" value="" style="endArrow=none;html=1;rounded=0;dashed=1;" parent="1" edge="1">
                    <mxGeometry width="50" height="50" relative="1" as="geometry">
                        <mxPoint x="464" y="680" as="sourcePoint"/>
                        <mxPoint x="464" y="161" as="targetPoint"/>
                    </mxGeometry>
                </mxCell>
                <mxCell id="XdkposplsFSqHSL-H2rm-15" value="Off-Chain" style="text;html=1;align=center;verticalAlign=middle;resizable=0;points=[];autosize=1;strokeColor=none;fillColor=none;fontSize=16;fontStyle=1" parent="1" vertex="1">
                    <mxGeometry x="582.5" y="150" width="100" height="30" as="geometry"/>
                </mxCell>
                <mxCell id="XdkposplsFSqHSL-H2rm-16" value="On-Chain" style="text;html=1;align=center;verticalAlign=middle;resizable=0;points=[];autosize=1;strokeColor=none;fillColor=none;fontSize=16;fontStyle=1" parent="1" vertex="1">
                    <mxGeometry x="312.5" y="150" width="100" height="30" as="geometry"/>
                </mxCell>
                <mxCell id="XdkposplsFSqHSL-H2rm-18" value="Arbitrate" style="text;html=1;align=center;verticalAlign=middle;resizable=0;points=[];autosize=1;strokeColor=none;fillColor=none;" parent="1" vertex="1">
                    <mxGeometry x="483" y="408" width="70" height="30" as="geometry"/>
                </mxCell>
                <mxCell id="R2SHoENa1AMxqyAqXyUj-1" value="or" style="text;html=1;strokeColor=none;fillColor=none;align=center;verticalAlign=middle;whiteSpace=wrap;rounded=0;" parent="1" vertex="1">
                    <mxGeometry x="328.5" y="355" width="60" height="30" as="geometry"/>
                </mxCell>
                <mxCell id="mZSC6QQ1Ej0cdaxBKfZL-1" value="&lt;br&gt;EVM" style="ellipse;whiteSpace=wrap;html=1;aspect=fixed;verticalAlign=top;" parent="1" vertex="1">
                    <mxGeometry x="286" y="207" width="150" height="150" as="geometry"/>
                </mxCell>
                <mxCell id="mZSC6QQ1Ej0cdaxBKfZL-2" value="MIPS.sol" style="rounded=0;whiteSpace=wrap;html=1;" parent="1" vertex="1">
                    <mxGeometry x="301" y="253" width="115" height="60" as="geometry"/>
                </mxCell>
                <mxCell id="wgEDJszfuv_QJwVBHLMD-1" value="" style="endArrow=classic;html=1;" parent="1" edge="1">
                    <mxGeometry width="50" height="50" relative="1" as="geometry">
                        <mxPoint x="550" y="439" as="sourcePoint"/>
                        <mxPoint x="476" y="439" as="targetPoint"/>
                    </mxGeometry>
                </mxCell>
                <mxCell id="QksyU1p-A5cM2u_yoaru-2" value="&lt;br&gt;Arbitrary VM" style="ellipse;whiteSpace=wrap;html=1;aspect=fixed;verticalAlign=top;" parent="1" vertex="1">
                    <mxGeometry x="285.5" y="559" width="150" height="150" as="geometry"/>
                </mxCell>
                <mxCell id="QksyU1p-A5cM2u_yoaru-3" value="MIPS Contract" style="rounded=0;whiteSpace=wrap;html=1;" parent="1" vertex="1">
                    <mxGeometry x="303" y="610" width="115" height="60" as="geometry"/>
                </mxCell>
                <mxCell id="QksyU1p-A5cM2u_yoaru-4" value="or" style="text;html=1;strokeColor=none;fillColor=none;align=center;verticalAlign=middle;whiteSpace=wrap;rounded=0;" parent="1" vertex="1">
                    <mxGeometry x="330.5" y="530" width="60" height="30" as="geometry"/>
                </mxCell>
                <mxCell id="B_G0NRVPA1ljCq9yVG63-4" value="MoveVM" style="rounded=0;whiteSpace=wrap;html=1;" parent="1" vertex="1">
                    <mxGeometry x="575" y="575" width="115" height="60" as="geometry"/>
                </mxCell>
                <mxCell id="B_G0NRVPA1ljCq9yVG63-5" value="OMO&lt;br&gt;&amp;nbsp;(MIPS Emulator)" style="whiteSpace=wrap;html=1;aspect=fixed;verticalAlign=top;" parent="1" vertex="1">
                    <mxGeometry x="560" y="518.5" width="151.5" height="151.5" as="geometry"/>
                </mxCell>
                <mxCell id="B_G0NRVPA1ljCq9yVG63-6" value="MoveVM" style="rounded=0;whiteSpace=wrap;html=1;" parent="1" vertex="1">
                    <mxGeometry x="578.25" y="575" width="115" height="60" as="geometry"/>
                </mxCell>
            </root>
        </mxGraphModel>
    </diagram>
    <diagram id="JpEhz7xsoWTMopCF3eo8" name="statedb">
        <mxGraphModel dx="1192" dy="716" grid="1" gridSize="10" guides="1" tooltips="1" connect="1" arrows="1" fold="1" page="1" pageScale="1" pageWidth="850" pageHeight="1100" background="#ffffff" math="0" shadow="0">
            <root>
                <mxCell id="0"/>
                <mxCell id="1" parent="0"/>
                <mxCell id="EfCglWQtfxGPOwnAxTzV-20" style="edgeStyle=none;html=1;exitX=0.5;exitY=1;exitDx=0;exitDy=0;fontSize=8;endArrow=none;endFill=0;" parent="1" source="EfCglWQtfxGPOwnAxTzV-1" target="EfCglWQtfxGPOwnAxTzV-4" edge="1">
                    <mxGeometry relative="1" as="geometry"/>
                </mxCell>
                <mxCell id="EfCglWQtfxGPOwnAxTzV-22" value="ObjectID(Hash(Address+0))" style="edgeLabel;html=1;align=center;verticalAlign=middle;resizable=0;points=[];fontSize=8;" parent="EfCglWQtfxGPOwnAxTzV-20" vertex="1" connectable="0">
                    <mxGeometry x="0.0121" relative="1" as="geometry">
                        <mxPoint as="offset"/>
                    </mxGeometry>
                </mxCell>
                <mxCell id="EfCglWQtfxGPOwnAxTzV-21" style="edgeStyle=none;html=1;exitX=0.5;exitY=1;exitDx=0;exitDy=0;entryX=0.5;entryY=0;entryDx=0;entryDy=0;fontSize=8;endArrow=none;endFill=0;" parent="1" source="EfCglWQtfxGPOwnAxTzV-1" target="EfCglWQtfxGPOwnAxTzV-8" edge="1">
                    <mxGeometry relative="1" as="geometry"/>
                </mxCell>
                <mxCell id="EfCglWQtfxGPOwnAxTzV-37" value="ObjectID" style="edgeStyle=none;html=1;exitX=0.5;exitY=1;exitDx=0;exitDy=0;entryX=0.25;entryY=0;entryDx=0;entryDy=0;fontSize=8;endArrow=none;endFill=0;" parent="1" source="EfCglWQtfxGPOwnAxTzV-1" target="EfCglWQtfxGPOwnAxTzV-34" edge="1">
                    <mxGeometry relative="1" as="geometry"/>
                </mxCell>
                <mxCell id="d0_G30S1BKhN1SL5t5LG-12" style="edgeStyle=none;rounded=0;html=1;exitX=0.75;exitY=1;exitDx=0;exitDy=0;entryX=0.5;entryY=0;entryDx=0;entryDy=0;endArrow=none;endFill=0;" parent="1" source="EfCglWQtfxGPOwnAxTzV-1" target="d0_G30S1BKhN1SL5t5LG-4" edge="1">
                    <mxGeometry relative="1" as="geometry"/>
                </mxCell>
                <mxCell id="d0_G30S1BKhN1SL5t5LG-13" value="ObjectID(Address)" style="edgeLabel;html=1;align=center;verticalAlign=middle;resizable=0;points=[];fontSize=8;" parent="d0_G30S1BKhN1SL5t5LG-12" vertex="1" connectable="0">
                    <mxGeometry x="-0.0159" y="2" relative="1" as="geometry">
                        <mxPoint as="offset"/>
                    </mxGeometry>
                </mxCell>
                <mxCell id="EfCglWQtfxGPOwnAxTzV-1" value="State Root(SMT)" style="rounded=0;whiteSpace=wrap;html=1;fontSize=8;" parent="1" vertex="1">
                    <mxGeometry x="500" y="230" width="104.5" height="20" as="geometry"/>
                </mxCell>
                <mxCell id="EfCglWQtfxGPOwnAxTzV-4" value="Object&amp;lt;TableInfo&amp;gt;&lt;br&gt;(ResourceTable)" style="swimlane;fontStyle=0;childLayout=stackLayout;horizontal=1;startSize=30;horizontalStack=0;resizeParent=1;resizeParentMax=0;resizeLast=0;collapsible=1;marginBottom=0;whiteSpace=wrap;html=1;fontSize=8;" parent="1" vertex="1">
                    <mxGeometry x="470" y="400" width="90" height="70" as="geometry">
                        <mxRectangle x="270" y="470" width="90" height="30" as="alternateBounds"/>
                    </mxGeometry>
                </mxCell>
                <mxCell id="EfCglWQtfxGPOwnAxTzV-5" value="ObjectID" style="text;strokeColor=default;fillColor=none;align=left;verticalAlign=middle;spacingLeft=4;spacingRight=4;overflow=hidden;points=[[0,0.5],[1,0.5]];portConstraint=eastwest;rotatable=0;whiteSpace=wrap;html=1;fontSize=8;dashed=1;" parent="EfCglWQtfxGPOwnAxTzV-4" vertex="1">
                    <mxGeometry y="30" width="90" height="20" as="geometry"/>
                </mxCell>
                <mxCell id="EfCglWQtfxGPOwnAxTzV-6" value="StateRoot" style="text;strokeColor=default;fillColor=none;align=left;verticalAlign=middle;spacingLeft=4;spacingRight=4;overflow=hidden;points=[[0,0.5],[1,0.5]];portConstraint=eastwest;rotatable=0;whiteSpace=wrap;html=1;fontSize=8;dashed=1;" parent="EfCglWQtfxGPOwnAxTzV-4" vertex="1">
                    <mxGeometry y="50" width="90" height="20" as="geometry"/>
                </mxCell>
                <mxCell id="EfCglWQtfxGPOwnAxTzV-8" value="Object&amp;lt;TableInfo&amp;gt;&lt;br&gt;(ModuleTable)" style="swimlane;fontStyle=0;childLayout=stackLayout;horizontal=1;startSize=30;horizontalStack=0;resizeParent=1;resizeParentMax=0;resizeLast=0;collapsible=1;marginBottom=0;whiteSpace=wrap;html=1;fontSize=8;" parent="1" vertex="1">
                    <mxGeometry x="604.5" y="400" width="90" height="70" as="geometry">
                        <mxRectangle x="270" y="470" width="90" height="30" as="alternateBounds"/>
                    </mxGeometry>
                </mxCell>
                <mxCell id="EfCglWQtfxGPOwnAxTzV-9" value="ObjectID" style="text;strokeColor=default;fillColor=none;align=left;verticalAlign=middle;spacingLeft=4;spacingRight=4;overflow=hidden;points=[[0,0.5],[1,0.5]];portConstraint=eastwest;rotatable=0;whiteSpace=wrap;html=1;fontSize=8;dashed=1;" parent="EfCglWQtfxGPOwnAxTzV-8" vertex="1">
                    <mxGeometry y="30" width="90" height="20" as="geometry"/>
                </mxCell>
                <mxCell id="EfCglWQtfxGPOwnAxTzV-10" value="StateRoot" style="text;strokeColor=default;fillColor=none;align=left;verticalAlign=middle;spacingLeft=4;spacingRight=4;overflow=hidden;points=[[0,0.5],[1,0.5]];portConstraint=eastwest;rotatable=0;whiteSpace=wrap;html=1;fontSize=8;dashed=1;" parent="EfCglWQtfxGPOwnAxTzV-8" vertex="1">
                    <mxGeometry y="50" width="90" height="20" as="geometry"/>
                </mxCell>
                <mxCell id="EfCglWQtfxGPOwnAxTzV-17" value="StructType1" style="edgeStyle=none;html=1;exitX=0.25;exitY=1;exitDx=0;exitDy=0;entryX=0.25;entryY=0;entryDx=0;entryDy=0;fontSize=8;endArrow=none;endFill=0;" parent="1" source="EfCglWQtfxGPOwnAxTzV-14" edge="1">
                    <mxGeometry relative="1" as="geometry">
                        <mxPoint x="342.5" y="580" as="targetPoint"/>
                    </mxGeometry>
                </mxCell>
                <mxCell id="EfCglWQtfxGPOwnAxTzV-19" value="rooch_framework::account::Account" style="edgeStyle=none;html=1;exitX=0.5;exitY=1;exitDx=0;exitDy=0;entryX=0.5;entryY=0;entryDx=0;entryDy=0;fontSize=8;endArrow=none;endFill=0;" parent="1" source="EfCglWQtfxGPOwnAxTzV-14" target="EfCglWQtfxGPOwnAxTzV-40" edge="1">
                    <mxGeometry x="0.6593" y="30" relative="1" as="geometry">
                        <mxPoint x="432" y="580" as="targetPoint"/>
                        <mxPoint as="offset"/>
                    </mxGeometry>
                </mxCell>
                <mxCell id="EfCglWQtfxGPOwnAxTzV-14" value="State Root(SMT)" style="rounded=0;whiteSpace=wrap;html=1;fontSize=8;" parent="1" vertex="1">
                    <mxGeometry x="340" y="490" width="104.5" height="20" as="geometry"/>
                </mxCell>
                <mxCell id="EfCglWQtfxGPOwnAxTzV-23" value="ObjectID(Hash(Address+1))" style="edgeLabel;html=1;align=center;verticalAlign=middle;resizable=0;points=[];fontSize=8;" parent="1" vertex="1" connectable="0">
                    <mxGeometry x="630.0009868747195" y="349.99503162891006" as="geometry"/>
                </mxCell>
                <mxCell id="EfCglWQtfxGPOwnAxTzV-24" value="ModuleName1" style="edgeStyle=none;html=1;exitX=0.25;exitY=1;exitDx=0;exitDy=0;entryX=0.25;entryY=0;entryDx=0;entryDy=0;fontSize=8;endArrow=none;endFill=0;" parent="1" source="EfCglWQtfxGPOwnAxTzV-26" target="EfCglWQtfxGPOwnAxTzV-27" edge="1">
                    <mxGeometry relative="1" as="geometry"/>
                </mxCell>
                <mxCell id="EfCglWQtfxGPOwnAxTzV-25" value="ModuleName2" style="edgeStyle=none;html=1;exitX=0.5;exitY=1;exitDx=0;exitDy=0;entryX=0.75;entryY=0;entryDx=0;entryDy=0;fontSize=8;endArrow=none;endFill=0;" parent="1" source="EfCglWQtfxGPOwnAxTzV-26" target="EfCglWQtfxGPOwnAxTzV-28" edge="1">
                    <mxGeometry relative="1" as="geometry"/>
                </mxCell>
                <mxCell id="EfCglWQtfxGPOwnAxTzV-26" value="State Root(SMT)" style="rounded=0;whiteSpace=wrap;html=1;fontSize=8;" parent="1" vertex="1">
                    <mxGeometry x="657" y="540" width="104.5" height="20" as="geometry"/>
                </mxCell>
                <mxCell id="EfCglWQtfxGPOwnAxTzV-27" value="ByteCode1" style="rounded=0;whiteSpace=wrap;html=1;fontSize=8;" parent="1" vertex="1">
                    <mxGeometry x="647" y="630" width="50" height="20" as="geometry"/>
                </mxCell>
                <mxCell id="EfCglWQtfxGPOwnAxTzV-28" value="ByteCode2" style="rounded=0;whiteSpace=wrap;html=1;fontSize=8;" parent="1" vertex="1">
                    <mxGeometry x="711.5" y="630" width="50" height="20" as="geometry"/>
                </mxCell>
                <mxCell id="EfCglWQtfxGPOwnAxTzV-29" style="edgeStyle=none;html=1;entryX=0.5;entryY=0;entryDx=0;entryDy=0;fontSize=8;endArrow=classic;endFill=1;exitX=1;exitY=0.5;exitDx=0;exitDy=0;rounded=0;" parent="1" source="EfCglWQtfxGPOwnAxTzV-10" target="EfCglWQtfxGPOwnAxTzV-26" edge="1">
                    <mxGeometry relative="1" as="geometry">
                        <Array as="points">
                            <mxPoint x="710" y="460"/>
                        </Array>
                    </mxGeometry>
                </mxCell>
                <mxCell id="EfCglWQtfxGPOwnAxTzV-30" style="edgeStyle=none;html=1;entryX=0.5;entryY=0;entryDx=0;entryDy=0;fontSize=8;endArrow=classic;endFill=1;exitX=0;exitY=0.5;exitDx=0;exitDy=0;rounded=0;" parent="1" source="EfCglWQtfxGPOwnAxTzV-6" target="EfCglWQtfxGPOwnAxTzV-14" edge="1">
                    <mxGeometry relative="1" as="geometry">
                        <Array as="points">
                            <mxPoint x="392" y="460"/>
                        </Array>
                    </mxGeometry>
                </mxCell>
                <mxCell id="EfCglWQtfxGPOwnAxTzV-31" value="MoveStruct" style="swimlane;fontStyle=0;childLayout=stackLayout;horizontal=1;startSize=30;horizontalStack=0;resizeParent=1;resizeParentMax=0;resizeLast=0;collapsible=1;marginBottom=0;whiteSpace=wrap;html=1;fontSize=8;" parent="1" vertex="1">
                    <mxGeometry x="290" y="580" width="90" height="70" as="geometry">
                        <mxRectangle x="270" y="470" width="90" height="30" as="alternateBounds"/>
                    </mxGeometry>
                </mxCell>
                <mxCell id="EfCglWQtfxGPOwnAxTzV-32" value="ObjectID" style="text;strokeColor=default;fillColor=none;align=left;verticalAlign=middle;spacingLeft=4;spacingRight=4;overflow=hidden;points=[[0,0.5],[1,0.5]];portConstraint=eastwest;rotatable=0;whiteSpace=wrap;html=1;fontSize=8;dashed=1;" parent="EfCglWQtfxGPOwnAxTzV-31" vertex="1">
                    <mxGeometry y="30" width="90" height="20" as="geometry"/>
                </mxCell>
                <mxCell id="EfCglWQtfxGPOwnAxTzV-33" value="TableRef" style="text;strokeColor=default;fillColor=none;align=left;verticalAlign=middle;spacingLeft=4;spacingRight=4;overflow=hidden;points=[[0,0.5],[1,0.5]];portConstraint=eastwest;rotatable=0;whiteSpace=wrap;html=1;fontSize=8;dashed=1;" parent="EfCglWQtfxGPOwnAxTzV-31" vertex="1">
                    <mxGeometry y="50" width="90" height="20" as="geometry"/>
                </mxCell>
                <mxCell id="EfCglWQtfxGPOwnAxTzV-34" value="Object&amp;lt;T&amp;gt;" style="swimlane;fontStyle=0;childLayout=stackLayout;horizontal=1;startSize=30;horizontalStack=0;resizeParent=1;resizeParentMax=0;resizeLast=0;collapsible=1;marginBottom=0;whiteSpace=wrap;html=1;fontSize=8;" parent="1" vertex="1">
                    <mxGeometry x="278" y="400" width="90" height="70" as="geometry">
                        <mxRectangle x="270" y="470" width="90" height="30" as="alternateBounds"/>
                    </mxGeometry>
                </mxCell>
                <mxCell id="EfCglWQtfxGPOwnAxTzV-35" value="ObjectID" style="text;strokeColor=default;fillColor=none;align=left;verticalAlign=middle;spacingLeft=4;spacingRight=4;overflow=hidden;points=[[0,0.5],[1,0.5]];portConstraint=eastwest;rotatable=0;whiteSpace=wrap;html=1;fontSize=8;dashed=1;" parent="EfCglWQtfxGPOwnAxTzV-34" vertex="1">
                    <mxGeometry y="30" width="90" height="20" as="geometry"/>
                </mxCell>
                <mxCell id="EfCglWQtfxGPOwnAxTzV-36" value="T" style="text;strokeColor=default;fillColor=none;align=left;verticalAlign=middle;spacingLeft=4;spacingRight=4;overflow=hidden;points=[[0,0.5],[1,0.5]];portConstraint=eastwest;rotatable=0;whiteSpace=wrap;html=1;fontSize=8;dashed=1;" parent="EfCglWQtfxGPOwnAxTzV-34" vertex="1">
                    <mxGeometry y="50" width="90" height="20" as="geometry"/>
                </mxCell>
                <mxCell id="EfCglWQtfxGPOwnAxTzV-39" value="" style="edgeStyle=elbowEdgeStyle;elbow=horizontal;endArrow=classic;html=1;curved=0;rounded=0;endSize=8;startSize=8;fontSize=8;exitX=0;exitY=0.5;exitDx=0;exitDy=0;entryX=0;entryY=0.25;entryDx=0;entryDy=0;" parent="1" source="EfCglWQtfxGPOwnAxTzV-32" target="EfCglWQtfxGPOwnAxTzV-34" edge="1">
                    <mxGeometry width="50" height="50" relative="1" as="geometry">
                        <mxPoint x="340" y="440" as="sourcePoint"/>
                        <mxPoint x="390" y="390" as="targetPoint"/>
                        <Array as="points">
                            <mxPoint x="240" y="540"/>
                        </Array>
                    </mxGeometry>
                </mxCell>
                <mxCell id="EfCglWQtfxGPOwnAxTzV-40" value="Account" style="swimlane;fontStyle=0;childLayout=stackLayout;horizontal=1;startSize=30;horizontalStack=0;resizeParent=1;resizeParentMax=0;resizeLast=0;collapsible=1;marginBottom=0;whiteSpace=wrap;html=1;fontSize=8;" parent="1" vertex="1">
                    <mxGeometry x="400" y="580" width="90" height="70" as="geometry">
                        <mxRectangle x="270" y="470" width="90" height="30" as="alternateBounds"/>
                    </mxGeometry>
                </mxCell>
                <mxCell id="EfCglWQtfxGPOwnAxTzV-41" value="authentication_key" style="text;strokeColor=default;fillColor=none;align=left;verticalAlign=middle;spacingLeft=4;spacingRight=4;overflow=hidden;points=[[0,0.5],[1,0.5]];portConstraint=eastwest;rotatable=0;whiteSpace=wrap;html=1;fontSize=8;dashed=1;" parent="EfCglWQtfxGPOwnAxTzV-40" vertex="1">
                    <mxGeometry y="30" width="90" height="20" as="geometry"/>
                </mxCell>
                <mxCell id="EfCglWQtfxGPOwnAxTzV-42" value="sequence_number" style="text;strokeColor=default;fillColor=none;align=left;verticalAlign=middle;spacingLeft=4;spacingRight=4;overflow=hidden;points=[[0,0.5],[1,0.5]];portConstraint=eastwest;rotatable=0;whiteSpace=wrap;html=1;fontSize=8;dashed=1;" parent="EfCglWQtfxGPOwnAxTzV-40" vertex="1">
                    <mxGeometry y="50" width="90" height="20" as="geometry"/>
                </mxCell>
                <mxCell id="EfCglWQtfxGPOwnAxTzV-46" style="edgeStyle=none;html=1;exitX=0.5;exitY=0;exitDx=0;exitDy=0;entryX=0.5;entryY=1;entryDx=0;entryDy=0;fontSize=8;endArrow=none;endFill=0;" parent="1" source="EfCglWQtfxGPOwnAxTzV-43" target="EfCglWQtfxGPOwnAxTzV-1" edge="1">
                    <mxGeometry relative="1" as="geometry"/>
                </mxCell>
                <mxCell id="EfCglWQtfxGPOwnAxTzV-47" value="ObjectID" style="edgeLabel;html=1;align=center;verticalAlign=middle;resizable=0;points=[];fontSize=8;" parent="EfCglWQtfxGPOwnAxTzV-46" vertex="1" connectable="0">
                    <mxGeometry x="-0.0686" y="1" relative="1" as="geometry">
                        <mxPoint as="offset"/>
                    </mxGeometry>
                </mxCell>
                <mxCell id="EfCglWQtfxGPOwnAxTzV-43" value="Object&amp;lt;TableInfo&amp;gt;" style="swimlane;fontStyle=0;childLayout=stackLayout;horizontal=1;startSize=30;horizontalStack=0;resizeParent=1;resizeParentMax=0;resizeLast=0;collapsible=1;marginBottom=0;whiteSpace=wrap;html=1;fontSize=8;" parent="1" vertex="1">
                    <mxGeometry x="100" y="400" width="90" height="70" as="geometry">
                        <mxRectangle x="270" y="470" width="90" height="30" as="alternateBounds"/>
                    </mxGeometry>
                </mxCell>
                <mxCell id="EfCglWQtfxGPOwnAxTzV-44" value="ObjectID" style="text;strokeColor=default;fillColor=none;align=left;verticalAlign=middle;spacingLeft=4;spacingRight=4;overflow=hidden;points=[[0,0.5],[1,0.5]];portConstraint=eastwest;rotatable=0;whiteSpace=wrap;html=1;fontSize=8;dashed=1;" parent="EfCglWQtfxGPOwnAxTzV-43" vertex="1">
                    <mxGeometry y="30" width="90" height="20" as="geometry"/>
                </mxCell>
                <mxCell id="EfCglWQtfxGPOwnAxTzV-45" value="StateRoot" style="text;strokeColor=default;fillColor=none;align=left;verticalAlign=middle;spacingLeft=4;spacingRight=4;overflow=hidden;points=[[0,0.5],[1,0.5]];portConstraint=eastwest;rotatable=0;whiteSpace=wrap;html=1;fontSize=8;dashed=1;" parent="EfCglWQtfxGPOwnAxTzV-43" vertex="1">
                    <mxGeometry y="50" width="90" height="20" as="geometry"/>
                </mxCell>
                <mxCell id="EfCglWQtfxGPOwnAxTzV-48" value="Key1" style="edgeStyle=none;html=1;exitX=0.25;exitY=1;exitDx=0;exitDy=0;entryX=0.25;entryY=0;entryDx=0;entryDy=0;fontSize=8;endArrow=none;endFill=0;" parent="1" source="EfCglWQtfxGPOwnAxTzV-50" target="EfCglWQtfxGPOwnAxTzV-51" edge="1">
                    <mxGeometry relative="1" as="geometry"/>
                </mxCell>
                <mxCell id="EfCglWQtfxGPOwnAxTzV-49" value="Key2" style="edgeStyle=none;html=1;exitX=0.5;exitY=1;exitDx=0;exitDy=0;entryX=0.75;entryY=0;entryDx=0;entryDy=0;fontSize=8;endArrow=none;endFill=0;" parent="1" source="EfCglWQtfxGPOwnAxTzV-50" target="EfCglWQtfxGPOwnAxTzV-52" edge="1">
                    <mxGeometry relative="1" as="geometry"/>
                </mxCell>
                <mxCell id="EfCglWQtfxGPOwnAxTzV-50" value="State Root(SMT)" style="rounded=0;whiteSpace=wrap;html=1;fontSize=8;" parent="1" vertex="1">
                    <mxGeometry x="60" y="510" width="104.5" height="20" as="geometry"/>
                </mxCell>
                <mxCell id="EfCglWQtfxGPOwnAxTzV-51" value="Value1" style="rounded=0;whiteSpace=wrap;html=1;fontSize=8;" parent="1" vertex="1">
                    <mxGeometry x="50" y="600" width="50" height="20" as="geometry"/>
                </mxCell>
                <mxCell id="EfCglWQtfxGPOwnAxTzV-52" value="Value2" style="rounded=0;whiteSpace=wrap;html=1;fontSize=8;" parent="1" vertex="1">
                    <mxGeometry x="114.5" y="600" width="50" height="20" as="geometry"/>
                </mxCell>
                <mxCell id="EfCglWQtfxGPOwnAxTzV-54" value="" style="edgeStyle=elbowEdgeStyle;elbow=horizontal;endArrow=none;html=1;curved=0;rounded=0;endSize=8;startSize=8;fontSize=8;entryX=0;entryY=0.5;entryDx=0;entryDy=0;startArrow=classic;startFill=1;endFill=0;" parent="1" target="EfCglWQtfxGPOwnAxTzV-45" edge="1">
                    <mxGeometry width="50" height="50" relative="1" as="geometry">
                        <mxPoint x="80" y="510" as="sourcePoint"/>
                        <mxPoint x="80" y="440" as="targetPoint"/>
                        <Array as="points">
                            <mxPoint x="80" y="460"/>
                        </Array>
                    </mxGeometry>
                </mxCell>
                <mxCell id="d0_G30S1BKhN1SL5t5LG-3" style="edgeStyle=orthogonalEdgeStyle;html=1;exitX=0;exitY=0.5;exitDx=0;exitDy=0;entryX=1;entryY=0.25;entryDx=0;entryDy=0;rounded=0;" parent="1" source="EfCglWQtfxGPOwnAxTzV-33" target="EfCglWQtfxGPOwnAxTzV-43" edge="1">
                    <mxGeometry relative="1" as="geometry">
                        <Array as="points">
                            <mxPoint x="220" y="640"/>
                            <mxPoint x="220" y="418"/>
                        </Array>
                    </mxGeometry>
                </mxCell>
                <mxCell id="d0_G30S1BKhN1SL5t5LG-4" value="Object&amp;lt;AccountStorage&amp;gt;" style="swimlane;fontStyle=0;childLayout=stackLayout;horizontal=1;startSize=30;horizontalStack=0;resizeParent=1;resizeParentMax=0;resizeLast=0;collapsible=1;marginBottom=0;whiteSpace=wrap;html=1;fontSize=8;" parent="1" vertex="1">
                    <mxGeometry x="736" y="400" width="94" height="70" as="geometry">
                        <mxRectangle x="270" y="470" width="90" height="30" as="alternateBounds"/>
                    </mxGeometry>
                </mxCell>
                <mxCell id="d0_G30S1BKhN1SL5t5LG-5" value="Resources" style="text;strokeColor=default;fillColor=none;align=left;verticalAlign=middle;spacingLeft=4;spacingRight=4;overflow=hidden;points=[[0,0.5],[1,0.5]];portConstraint=eastwest;rotatable=0;whiteSpace=wrap;html=1;fontSize=8;dashed=1;" parent="d0_G30S1BKhN1SL5t5LG-4" vertex="1">
                    <mxGeometry y="30" width="94" height="20" as="geometry"/>
                </mxCell>
                <mxCell id="d0_G30S1BKhN1SL5t5LG-6" value="Modules" style="text;strokeColor=default;fillColor=none;align=left;verticalAlign=middle;spacingLeft=4;spacingRight=4;overflow=hidden;points=[[0,0.5],[1,0.5]];portConstraint=eastwest;rotatable=0;whiteSpace=wrap;html=1;fontSize=8;dashed=1;" parent="d0_G30S1BKhN1SL5t5LG-4" vertex="1">
                    <mxGeometry y="50" width="94" height="20" as="geometry"/>
                </mxCell>
                <mxCell id="d0_G30S1BKhN1SL5t5LG-9" style="edgeStyle=orthogonalEdgeStyle;rounded=0;html=1;exitX=0;exitY=0.5;exitDx=0;exitDy=0;entryX=1;entryY=0.25;entryDx=0;entryDy=0;" parent="1" source="d0_G30S1BKhN1SL5t5LG-6" target="EfCglWQtfxGPOwnAxTzV-8" edge="1">
                    <mxGeometry relative="1" as="geometry"/>
                </mxCell>
                <mxCell id="d0_G30S1BKhN1SL5t5LG-10" style="edgeStyle=orthogonalEdgeStyle;rounded=0;html=1;exitX=0;exitY=0.5;exitDx=0;exitDy=0;entryX=0.75;entryY=0;entryDx=0;entryDy=0;" parent="1" source="d0_G30S1BKhN1SL5t5LG-5" target="EfCglWQtfxGPOwnAxTzV-4" edge="1">
                    <mxGeometry relative="1" as="geometry">
                        <mxPoint x="720" y="360" as="targetPoint"/>
                        <Array as="points">
                            <mxPoint x="730" y="440"/>
                            <mxPoint x="730" y="390"/>
                            <mxPoint x="538" y="390"/>
                        </Array>
                    </mxGeometry>
                </mxCell>
            </root>
        </mxGraphModel>
    </diagram>
    <diagram id="RnYH5GV5izf0RyfVhBAA" name="StorageAbstraction">
        <mxGraphModel dx="405" dy="716" grid="1" gridSize="10" guides="1" tooltips="1" connect="1" arrows="1" fold="1" page="1" pageScale="1" pageWidth="850" pageHeight="1100" math="0" shadow="0">
            <root>
                <mxCell id="0"/>
                <mxCell id="1" parent="0"/>
                <mxCell id="VE-epdOxlRjSkLW2V2dk-1" value="" style="rounded=0;whiteSpace=wrap;html=1;" vertex="1" parent="1">
                    <mxGeometry x="110" y="280" width="650" height="270" as="geometry"/>
                </mxCell>
                <mxCell id="VE-epdOxlRjSkLW2V2dk-2" value="Storage Abstraction" style="rounded=0;whiteSpace=wrap;html=1;dashed=1;strokeColor=none;" vertex="1" parent="1">
                    <mxGeometry x="132.76" y="292" width="600.4705882352941" height="40" as="geometry"/>
                </mxCell>
                <mxCell id="VE-epdOxlRjSkLW2V2dk-9" value="RawTable" style="rounded=0;whiteSpace=wrap;html=1;" vertex="1" parent="1">
                    <mxGeometry x="133" y="500" width="604" height="40" as="geometry"/>
                </mxCell>
                <mxCell id="VE-epdOxlRjSkLW2V2dk-11" value="Table" style="rounded=0;whiteSpace=wrap;html=1;" vertex="1" parent="1">
                    <mxGeometry x="133" y="440" width="187" height="40" as="geometry"/>
                </mxCell>
                <mxCell id="VE-epdOxlRjSkLW2V2dk-12" value="TypeTable" style="rounded=0;whiteSpace=wrap;html=1;" vertex="1" parent="1">
                    <mxGeometry x="340" y="440" width="187" height="40" as="geometry"/>
                </mxCell>
                <mxCell id="VE-epdOxlRjSkLW2V2dk-13" value="ObjectStorage" style="rounded=0;whiteSpace=wrap;html=1;" vertex="1" parent="1">
                    <mxGeometry x="547.23" y="440" width="187" height="40" as="geometry"/>
                </mxCell>
                <mxCell id="1LlnzmgLya8TC7z18cx_-1" value="AccountStorage&lt;div style=&quot;text-align: justify;&quot;&gt;&lt;/div&gt;" style="rounded=0;whiteSpace=wrap;html=1;dashed=1;fillColor=none;verticalAlign=top;" vertex="1" parent="1">
                    <mxGeometry x="129.76" y="350" width="400.24" height="80" as="geometry"/>
                </mxCell>
                <mxCell id="VE-epdOxlRjSkLW2V2dk-14" value="ResourceTable" style="rounded=0;whiteSpace=wrap;html=1;" vertex="1" parent="1">
                    <mxGeometry x="340" y="380" width="187" height="40" as="geometry"/>
                </mxCell>
                <mxCell id="VE-epdOxlRjSkLW2V2dk-15" value="ModuleTable" style="rounded=0;whiteSpace=wrap;html=1;" vertex="1" parent="1">
                    <mxGeometry x="133" y="380" width="187" height="40" as="geometry"/>
                </mxCell>
                <mxCell id="lG586sItyR9QX2SpN4v9-2" value="App Specific Storage" style="rounded=0;whiteSpace=wrap;html=1;dashed=1;" vertex="1" parent="1">
                    <mxGeometry x="547.23" y="350" width="187" height="80" as="geometry"/>
                </mxCell>
            </root>
        </mxGraphModel>
    </diagram>
    <diagram id="VMdmvHIP7ZLM2UMgbgJ8" name="Page-5">
        <mxGraphModel dx="1192" dy="716" grid="1" gridSize="10" guides="1" tooltips="1" connect="1" arrows="1" fold="1" page="1" pageScale="1" pageWidth="850" pageHeight="1100" math="0" shadow="0">
            <root>
                <mxCell id="0"/>
                <mxCell id="1" parent="0"/>
            </root>
        </mxGraphModel>
    </diagram>
</mxfile>